_12Mar_ss_12ms_01.mot
version=1
nRows=21
nColumns=19
inDegrees=yes
endheader

time	ground_force_vx	ground_force_vy	ground_force_vz	ground_force_px	ground_force_py	ground_force_pz	ground_torque_x	ground_torque_y	ground_torque_z	1_ground_force_vx	1_ground_force_vy	1_ground_force_vz	1_ground_force_px	1_ground_force_py	1_ground_force_pz	1_ground_torque_x	1_ground_torque_y	1_ground_torque_z
19.089000	-21.069607	424.244714	55.942798	0.367858	0.000000	-1.142985	0.000027	-11.631516	0.000007	-39.823379	735.870505	-167.363600	0.547569	0.000000	-0.663455	0.000027	-18.928478	0.000014
19.090000	-19.655280	431.845155	58.725180	0.367302	0.000000	-1.143310	0.000027	-11.532100	0.000007	-38.980233	729.878771	-167.782547	0.547516	0.000000	-0.662567	0.000026	-18.881592	0.000014
19.091000	-18.173124	439.424547	61.523235	0.366747	0.000000	-1.143623	0.000027	-11.427285	0.000007	-38.128515	723.793310	-168.163661	0.547465	0.000000	-0.661684	0.000026	-18.835000	0.000014
19.092000	-16.624952	446.981532	64.334733	0.366194	0.000000	-1.143922	0.000028	-11.317426	0.000007	-37.268540	717.614621	-168.505274	0.547414	0.000000	-0.660807	0.000026	-18.788785	0.000014
19.093000	-15.012733	454.514832	67.157464	0.365642	0.000000	-1.144208	0.000028	-11.202880	0.000007	-36.400647	711.343270	-168.805723	0.547365	0.000000	-0.659936	0.000025	-18.743027	0.000014
19.094000	-13.338584	462.023254	69.989239	0.365093	0.000000	-1.144480	0.000029	-11.084010	0.000007	-35.525200	704.979891	-169.063349	0.547317	0.000000	-0.659071	0.000025	-18.697805	0.000014
19.095000	-11.604766	469.505680	72.827891	0.364546	0.000000	-1.144739	0.000029	-10.961180	0.000007	-34.642588	698.525193	-169.276504	0.547271	0.000000	-0.658213	0.000024	-18.653194	0.000013
19.096000	-9.813676	476.961067	75.671277	0.364003	0.000000	-1.144983	0.000029	-10.834756	0.000008	-33.753224	691.979954	-169.443559	0.547227	0.000000	-0.657362	0.000024	-18.609269	0.000013
19.097000	-7.967840	484.388440	78.517278	0.363463	0.000000	-1.145213	0.000030	-10.705105	0.000008	-32.857546	685.345033	-169.562901	0.547185	0.000000	-0.656519	0.000024	-18.566099	0.000013
19.098000	-6.069909	491.786894	81.363801	0.362928	0.000000	-1.145428	0.000030	-10.572591	0.000008	-31.956020	678.621363	-169.632945	0.547145	0.000000	-0.655684	0.000023	-18.523751	0.000013
19.099000	-4.122646	499.155583	84.208777	0.362396	0.000000	-1.145629	0.000031	-10.437578	0.000008	-31.049132	671.809961	-169.652133	0.547107	0.000000	-0.654857	0.000023	-18.482285	0.000013
19.100000	-2.128921	506.493723	87.050162	0.361870	0.000000	-1.145814	0.000031	-10.300426	0.000008	-30.137396	664.911926	-169.618945	0.547072	0.000000	-0.654040	0.000022	-18.441759	0.000013
19.101000	-0.091704	513.800583	89.885940	0.361348	0.000000	-1.145984	0.000031	-10.161492	0.000008	-29.221351	657.928439	-169.531900	0.547039	0.000000	-0.653231	0.000022	-18.402225	0.000013
19.102000	1.985949	521.075485	92.714120	0.360832	0.000000	-1.146138	0.000032	-10.021127	0.000008	-28.301558	650.860772	-169.389559	0.547009	0.000000	-0.652433	0.000022	-18.363730	0.000012
19.103000	4.100898	528.317796	95.532736	0.360323	0.000000	-1.146277	0.000032	-9.879676	0.000009	-27.378601	643.710281	-169.190535	0.546982	0.000000	-0.651644	0.000021	-18.326314	0.000012
19.104000	6.249935	535.526928	98.339852	0.359819	0.000000	-1.146399	0.000032	-9.737478	0.000009	-26.453090	636.478417	-168.933495	0.546958	0.000000	-0.650867	0.000021	-18.290012	0.000012
19.105000	8.429788	542.702332	101.133553	0.359322	0.000000	-1.146505	0.000033	-9.594863	0.000009	-25.525654	629.166720	-168.617166	0.546937	0.000000	-0.650102	0.000021	-18.254850	0.000012
19.106000	10.637133	549.843497	103.911954	0.358832	0.000000	-1.146594	0.000033	-9.452155	0.000009	-24.596946	621.776823	-168.240340	0.546920	0.000000	-0.649348	0.000020	-18.220849	0.000012
19.107000	12.868603	556.949941	106.673196	0.358350	0.000000	-1.146666	0.000033	-9.309667	0.000009	-23.667640	614.310455	-167.801876	0.546906	0.000000	-0.648607	0.000020	-18.188021	0.000012
19.108000	15.120799	564.021215	109.415444	0.357875	0.000000	-1.146721	0.000033	-9.167701	0.000009	-22.738429	606.769440	-167.300710	0.546896	0.000000	-0.647879	0.000020	-18.156373	0.000012
19.109000	17.390298	571.056891	112.136894	0.357409	0.000000	-1.146758	0.000034	-9.026552	0.000009	-21.810024	599.155701	-166.735857	0.546890	0.000000	-0.647164	0.000019	-18.125901	0.000012
